<svg width="32" height="24" fill="none" xmlns="http://www.w3.org/2000/svg"><g clip-path="url('#clip0_2_182')" fill="#0156D2"><path d="M15.8 2.468c3.014 0 3.369.014 4.56.067 1.103.05 1.698.233 2.097.39.529.206.904.449 1.3.843.394.394.64.77.841 1.3.152.398.34.994.39 2.096.054 1.192.068 1.546.068 4.562s-.014 3.37-.068 4.561c-.05 1.103-.233 1.699-.39 2.097-.206.53-.448.905-.842 1.3-.394.395-.77.64-1.3.842-.398.152-.993.34-2.096.39-1.191.054-1.545.067-4.56.067-3.015 0-3.369-.013-4.56-.067-1.102-.05-1.698-.233-2.097-.39a3.511 3.511 0 0 1-1.3-.842 3.444 3.444 0 0 1-.841-1.3c-.152-.398-.34-.994-.39-2.097-.054-1.192-.068-1.545-.068-4.561s.014-3.37.068-4.562c.05-1.101.233-1.698.39-2.097.205-.528.448-.905.842-1.3.394-.393.77-.64 1.3-.842.398-.152.994-.34 2.096-.39 1.19-.058 1.545-.067 4.56-.067Zm0-2.034c-3.064 0-3.45.013-4.654.067-1.2.054-2.02.247-2.737.524A5.505 5.505 0 0 0 6.41 2.329a5.593 5.593 0 0 0-1.303 1.999c-.278.717-.47 1.537-.524 2.742-.054 1.2-.068 1.586-.068 4.65 0 3.065.014 3.451.068 4.656.054 1.2.246 2.021.524 2.742a5.5 5.5 0 0 0 1.303 1.999A5.593 5.593 0 0 0 8.41 22.42c.716.277 1.536.47 2.741.524 1.205.054 1.586.067 4.654.067 3.068 0 3.45-.013 4.655-.067 1.2-.054 2.02-.247 2.741-.524a5.5 5.5 0 0 0 1.998-1.304 5.594 5.594 0 0 0 1.304-1.999c.277-.717.47-1.537.524-2.742.054-1.205.067-1.586.067-4.655 0-3.07-.013-3.45-.067-4.656-.054-1.2-.247-2.02-.524-2.742a5.5 5.5 0 0 0-1.304-1.998A5.591 5.591 0 0 0 23.2 1.02c-.717-.278-1.537-.47-2.741-.524-1.21-.05-1.595-.063-4.659-.063Z"/><path d="M15.8 5.922a5.796 5.796 0 0 0-5.732 5.798 5.8 5.8 0 0 0 5.732 5.798 5.8 5.8 0 0 0 5.796-5.799 5.8 5.8 0 0 0-5.797-5.798l.001.001Zm0 9.562a3.762 3.762 0 0 1-2.66-6.425 3.762 3.762 0 1 1 5.32 5.323 3.762 3.762 0 0 1-2.66 1.102Zm7.378-9.79a1.353 1.353 0 1 1-2.705.002 1.353 1.353 0 0 1 2.705-.002Z"/></g><defs><clipPath id="clip0_2_182"><path fill="#fff" transform="translate(.505 .25)" d="M0 0h30.59v22.94H0z"/></clipPath></defs></svg>